<?xml version="1.0" standalone="no"?>
<!DOCTYPE svg PUBLIC "-//W3C//DTD SVG 20010904//EN"
 "http://www.w3.org/TR/2001/REC-SVG-20010904/DTD/svg10.dtd">
<svg version="1.0" xmlns="http://www.w3.org/2000/svg"
 width="200.000000pt" height="200.000000pt" viewBox="0 0 200.000000 200.000000"
 preserveAspectRatio="xMidYMid meet">
<metadata>
Created by potrace 1.10, written by Peter Selinger 2001-2011
</metadata>
<g transform="translate(0.000000,200.000000) scale(0.100000,-0.100000)"
fill="#000000" stroke="none">
<path d="M377 1510 c-203 -109 -371 -201 -374 -203 -2 -3 43 -31 101 -62 l106
-57 0 -167 0 -167 -60 -13 c-33 -8 -63 -17 -65 -22 -6 -8 24 -129 35 -142 4
-4 39 0 78 10 l72 18 0 226 0 227 237 -129 c131 -71 243 -129 248 -129 20 0
747 395 744 405 -2 10 -713 396 -739 401 -8 1 -181 -87 -383 -196z m713 -22
c177 -95 322 -177 323 -183 2 -12 -631 -355 -657 -355 -10 0 -114 52 -232 115
-132 71 -225 115 -243 115 -19 0 -34 8 -45 24 -8 14 -43 39 -76 57 -33 17 -60
37 -60 43 0 11 636 356 657 356 7 0 157 -78 333 -172z m-860 -702 c0 -37 -12
-51 -52 -61 -24 -6 -29 -3 -38 20 -14 38 -10 46 31 61 53 19 59 17 59 -20z"/>
<path d="M714 1409 c-42 -12 -77 -52 -77 -89 0 -62 88 -113 157 -90 105 34
103 150 -3 180 -41 11 -36 11 -77 -1z m108 -56 c42 -38 4 -86 -67 -86 -71 0
-109 48 -67 85 34 31 100 32 134 1z"/>
<path d="M320 963 l1 -128 212 -115 c117 -63 217 -115 222 -115 6 0 105 52
222 115 l212 115 3 123 c2 67 -1 122 -5 122 -4 0 -102 -52 -218 -115 -115 -63
-212 -115 -214 -115 -5 0 -382 207 -412 226 l-23 14 0 -127z m240 -53 c106
-58 193 -99 203 -96 10 2 98 47 196 100 98 53 181 96 185 96 4 0 6 -34 4 -76
l-3 -77 -190 -103 c-104 -57 -194 -104 -199 -104 -15 0 -380 201 -388 214 -10
15 -10 146 0 146 4 0 91 -45 192 -100z"/>
<path d="M1342 823 c-158 -86 -210 -118 -203 -127 6 -7 33 -23 61 -36 l50 -23
0 -98 0 -98 -35 -7 c-19 -3 -37 -10 -40 -14 -4 -6 13 -80 20 -88 1 -2 23 2 49
9 l46 11 0 130 c0 71 4 128 8 126 4 -1 65 -34 136 -71 70 -38 133 -67 141 -65
33 7 425 224 422 233 -4 11 -417 235 -432 234 -5 0 -106 -53 -223 -116z m402
-19 c88 -48 165 -90 169 -94 12 -10 -2 -19 -180 -115 l-162 -87 -137 71 c-76
39 -143 71 -149 71 -6 0 -24 13 -39 29 l-28 29 64 35 c160 88 274 147 287 147
7 0 86 -39 175 -86z"/>
<path d="M1512 757 c-30 -32 -28 -71 4 -96 36 -28 66 -26 103 5 37 31 39 57 6
89 -32 33 -83 34 -113 2z m89 -26 c20 -16 21 -21 10 -35 -7 -9 -25 -16 -40
-16 -49 0 -70 43 -28 60 31 12 32 12 58 -9z"/>
<path d="M1312 499 l3 -71 126 -69 126 -69 132 71 131 71 0 69 c0 38 -3 69 -7
69 -5 0 -62 -29 -127 -65 -66 -36 -124 -65 -128 -65 -5 0 -62 29 -127 65 -65
36 -121 65 -125 65 -4 0 -6 -32 -4 -71z m157 -51 l99 -52 102 53 c56 29 104
50 107 47 3 -3 3 -16 0 -28 -5 -17 -33 -38 -109 -77 l-103 -54 -80 43 c-110
60 -135 78 -135 101 0 10 4 19 10 19 5 0 54 -23 109 -52z"/>
</g>
</svg>
